<svg width="80" height="51" viewBox="0 0 80 51" fill="none" xmlns="http://www.w3.org/2000/svg">
<path d="M36.9177 29.3144C36.8523 29.3144 36.7868 29.2817 36.7541 29.249L35.3479 27.7457C35.2498 27.6477 35.2498 27.4843 35.3479 27.3862C35.446 27.2882 35.6096 27.2882 35.7077 27.3862L37.1139 28.8895C37.212 28.9876 37.212 29.151 37.1139 29.249C37.0158 29.3144 36.9831 29.3144 36.9177 29.3144Z" fill="#5F5FFF"/>
<path d="M38.3892 28.7261C38.2911 28.7261 38.2257 28.6934 38.193 28.5954L36.7214 26.1117C36.656 25.981 36.6887 25.8502 36.8195 25.7849C36.9503 25.7195 37.0811 25.7522 37.1465 25.8829L38.6181 28.3666C38.6835 28.4974 38.6508 28.6281 38.52 28.6934C38.4546 28.7261 38.4219 28.7261 38.3892 28.7261Z" fill="#5F5FFF"/>
<path d="M52.6446 3.60262L47.4814 0.327606L43.3279 6.86695L48.4911 10.142L52.6446 3.60262Z" fill="white"/>
<path d="M48.5594 10.4578L43 6.92826L47.4148 0L52.9742 3.52949L48.5594 10.4578ZM43.6867 6.79754L48.4286 9.80415L52.3201 3.6929L47.5783 0.68629L43.6867 6.79754Z" fill="#030047"/>
<path d="M73.1144 41.7331L61.7667 34.5434L70.8906 20.164L75.6651 23.2033C79.2951 25.5236 80.3743 30.3276 78.0851 33.9551L73.1144 41.7331Z" fill="white"/>
<path d="M73.2125 42.0598L61.4396 34.6087L70.8252 19.8044L75.7959 22.9744C79.5567 25.3601 80.6686 30.3275 78.2813 34.0531L73.2125 42.0598ZM62.0937 34.4453L73.0489 41.3735L77.8889 33.759C80.1126 30.2295 79.0662 25.5562 75.567 23.3339L70.9887 20.4253L62.0937 34.4453Z" fill="#030047"/>
<path d="M21.8103 43.6045L16.422 31.2997L0.813582 38.1257L6.20193 50.4305L21.8103 43.6045Z" fill="white"/>
<path d="M6.05315 50.7717L0.46106 38.0263L16.5179 31L22.11 43.7454L6.05315 50.7717ZM1.11511 38.2551L6.31477 50.1181L21.4886 43.4839L16.289 31.6209L1.11511 38.2551Z" fill="#030047"/>
<path d="M14.9188 47.2159L20.9687 38.5229L24.7949 47.2159H14.9188Z" fill="white"/>
<path d="M25.1547 47.4774H14.4611L21.0015 38L25.1547 47.4774ZM15.3767 46.9872H24.4026L20.9034 39.0131L15.3767 46.9872Z" fill="#030047"/>
<path d="M8.23709 44.9167C8.17169 44.9167 8.10628 44.8841 8.07358 44.8514C7.97547 44.7533 7.97547 44.5899 8.07358 44.4919L10.4936 42.0735C10.5917 41.9755 10.7552 41.9755 10.8533 42.0735C10.9514 42.1716 10.9514 42.335 10.8533 42.433L8.43331 44.8514C8.3679 44.9167 8.3025 44.9167 8.23709 44.9167Z" fill="#5F5FFF"/>
<path d="M76.0249 30.6216C75.9922 30.6216 75.9268 30.6216 75.8941 30.589L70.8906 27.4189C70.7925 27.3536 70.7271 27.1902 70.8252 27.0921C70.8906 26.9941 71.0541 26.9287 71.1522 27.0268L76.1557 30.1968C76.2538 30.2621 76.3192 30.4255 76.2211 30.5236C76.1884 30.5889 76.123 30.6216 76.0249 30.6216Z" fill="#5F5FFF"/>
<path d="M74.913 32.223C74.8803 32.223 74.8149 32.223 74.7822 32.1903L73.4741 31.3733C73.376 31.3079 73.3106 31.1445 73.4087 31.0465C73.4741 30.9158 73.6376 30.8831 73.7357 30.9811L75.0438 31.7982C75.1419 31.8635 75.2073 32.0269 75.1092 32.125C75.0765 32.1576 75.0111 32.223 74.913 32.223Z" fill="#5F5FFF"/>
<path d="M72.2967 30.5563C72.264 30.5563 72.1986 30.5563 72.1659 30.5236L69.746 28.9876C69.6479 28.9223 69.5824 28.7589 69.6805 28.6608C69.746 28.5301 69.9095 28.4974 70.0076 28.5955L72.4275 30.1314C72.5256 30.1968 72.591 30.3602 72.4929 30.4582C72.4602 30.5236 72.3948 30.5563 72.2967 30.5563Z" fill="#5F5FFF"/>
<path d="M73.1798 33.6282C73.1471 33.6282 73.0817 33.6282 73.049 33.5955L68.6996 30.8177C68.6015 30.7523 68.5361 30.5889 68.6342 30.4909C68.6996 30.3928 68.8631 30.3275 68.9612 30.4255L73.3106 33.2034C73.4087 33.2687 73.4741 33.4321 73.376 33.5302C73.3433 33.5955 73.2779 33.6282 73.1798 33.6282Z" fill="#5F5FFF"/>
<circle cx="39.7534" cy="28.2466" r="17.7534" fill="white"/>
<path d="M41.3978 18.9044C41.2178 18.7666 41.0097 18.6653 40.7678 18.6091C40.5288 18.5557 40.2757 18.5247 40.0028 18.5247C39.73 18.5247 39.4741 18.5528 39.2322 18.6091C38.9875 18.6625 38.7794 18.7638 38.5966 18.9044C38.4166 19.0422 38.276 19.225 38.1719 19.4528C38.0706 19.6807 38.0172 19.9675 38.0172 20.3078C38.0172 20.6425 38.0706 20.9238 38.1719 21.1572C38.276 21.385 38.4166 21.5735 38.5966 21.7113C38.7766 21.8491 38.9875 21.9503 39.2322 22.0094C39.4741 22.0685 39.73 22.0994 40.0028 22.0994C40.2728 22.0994 40.5288 22.0685 40.7678 22.0094C41.0097 21.9503 41.2178 21.8491 41.3978 21.7113C41.5778 21.5735 41.7213 21.385 41.8282 21.1572C41.935 20.9238 41.9885 20.6425 41.9885 20.3078C41.9885 19.9647 41.935 19.6778 41.8282 19.4528C41.7213 19.225 41.5778 19.0422 41.3978 18.9044Z" fill="#4960E6"/>
<path d="M38.1776 23.7643H41.8254V37.1265H38.1776V23.7643Z" fill="#4960E6"/>
<path d="M40.0007 10.1162C30.1373 10.1162 22.116 18.1374 22.116 28.0009C22.116 37.8615 30.1373 45.8856 39.9979 45.8856C49.8585 45.8856 57.8826 37.8643 57.8826 28.0009C57.8854 18.1374 49.8613 10.1162 40.0007 10.1162ZM40.0007 43.3037C31.5632 43.3037 24.7007 36.4384 24.7007 28.0009C24.7007 19.5634 31.5632 12.6981 40.0007 12.6981C48.4382 12.6981 55.3035 19.5634 55.3035 28.0037C55.3007 36.4384 48.4354 43.3037 40.0007 43.3037Z" fill="#4960E6"/>
</svg>
